<?xml version="1.0" encoding="UTF-8" standalone="no"?>
<!-- Created with Inkscape (http://www.inkscape.org/) -->

<svg
   xmlns:dc="http://purl.org/dc/elements/1.1/"
   xmlns:cc="http://creativecommons.org/ns#"
   xmlns:rdf="http://www.w3.org/1999/02/22-rdf-syntax-ns#"
   xmlns:svg="http://www.w3.org/2000/svg"
   xmlns="http://www.w3.org/2000/svg"
   xmlns:sodipodi="http://sodipodi.sourceforge.net/DTD/sodipodi-0.dtd"
   xmlns:inkscape="http://www.inkscape.org/namespaces/inkscape"
   width="300"
   height="306.46399"
   viewBox="0 0 300.00001 306.46396"
   id="svg8099"
   version="1.1"
   inkscape:version="0.91 r13725"
   sodipodi:docname="1237.svg">
  <title
     id="title9130">Google Favicon</title>
  <defs
     id="defs8101" />
  <sodipodi:namedview
     id="base"
     pagecolor="#ffffff"
     bordercolor="#666666"
     borderopacity="1.0"
     inkscape:pageopacity="0.0"
     inkscape:pageshadow="2"
     inkscape:zoom="0.45"
     inkscape:cx="319.39655"
     inkscape:cy="362.05561"
     inkscape:document-units="px"
     inkscape:current-layer="layer1"
     showgrid="false"
     units="px"
     inkscape:window-width="1600"
     inkscape:window-height="838"
     inkscape:window-x="-8"
     inkscape:window-y="-8"
     inkscape:window-maximized="1" />
  <metadata
     id="metadata8104">
    <rdf:RDF>
      <cc:Work
         rdf:about="">
        <dc:format>image/svg+xml</dc:format>
        <dc:type
           rdf:resource="http://purl.org/dc/dcmitype/StillImage" />
        <dc:title>Google Favicon</dc:title>
      </cc:Work>
    </rdf:RDF>
  </metadata>
  <g
     inkscape:label="Layer 1"
     inkscape:groupmode="layer"
     id="layer1"
     transform="translate(0,-745.89825)">
    <g
       id="g9070"
       transform="matrix(1.000262,0,0,1.000262,293.27634,374.40848)">
      <g
         id="g9118"
         transform="translate(-453.44828,21.551724)">
        <g
           id="g9124">
          <path
             style="fill:#4284f2"
             d="m 390.60765,600.5029 -23.69312,-18.42209 5.44055,-4.44465 c 6.76976,-5.53055 13.583,-14.02122 17.88222,-22.28484 3.33674,-6.41365 7.67805,-20.33163 6.87586,-21.6296 l -83.18214,-3e-4 0,-59.16913 143.55371,0 0.3844,1.77508 c 6.46582,29.857 -1.62596,79.67254 -12.70965,101.54925 -7.29891,14.40641 -30.24779,41.04836 -30.24779,41.04836 0,0 -11.27282,-8.28994 -24.30404,-18.42208 z"
             id="path9086"
             inkscape:connector-curvature="0"
             sodipodi:nodetypes="scssccccsscs" />
          <path
             style="fill:#f9ba05"
             d="m 173.48707,566.30864 c -18.17145,-40.01355 -17.57777,-93.98814 1.42315,-129.3857 l 1.35386,-2.52233 22.69685,17.65439 c 12.48323,9.70988 23.6253,18.33078 24.76019,19.15749 l 2.06344,1.50311 -1.27113,3.8768 c -4.3231,13.18493 -4.80146,34.99492 -1.07998,49.23981 1.0769,4.12211 1.90982,7.53754 1.85094,7.58984 -16.73214,13.01962 -33.06755,25.51784 -49.35889,38.25602 z"
             id="path9084"
             inkscape:connector-curvature="0"
             sodipodi:nodetypes="sscsscssccs" />
          <path
             style="fill:#e84335"
             d="m 201.35642,453.94932 c -12.93292,-10.02991 -24.79021,-19.08966 -25.09234,-19.56468 0,0 17.39708,-29.13207 30.85302,-41.91959 57.24687,-54.40314 147.85256,-57.06969 205.03468,-6.03423 l 3.15569,2.81648 -21.20809,21.26425 -21.2081,21.26425 -4.82632,-3.92456 c -38.50964,-31.3144 -97.17283,-22.87256 -128.32239,18.46604 -4.38148,5.81465 -13.95787,26.3987 -13.95787,26.3987 0,0 -1.27429,-0.80997 -24.42828,-18.76666 z"
             id="path9074"
             inkscape:connector-curvature="0"
             sodipodi:nodetypes="sssscccsscs" />
          <path
             style="fill:#34a752"
             d="m 302.30935,655.86386 c -46.70145,-2.91702 -91.20792,-28.98665 -117.13137,-68.60963 -7.20816,-11.0174 -9.25234,-15.5759 -9.25234,-15.5759 0,0 48.6883,-38.2564 49.35889,-38.2564 6.0637,12.51836 14.57945,28.00431 24.47039,37.87698 29.24619,28.31897 76.76186,34.51049 111.05466,14.47094 2.95088,-1.72441 6.10455,-3.6888 6.10455,-3.6888 l 47.99721,36.84423 c 0,0 -3.11518,3.19079 -5.99858,5.53022 -28.23739,22.91026 -65.74322,33.96053 -106.60341,31.40836 z"
             id="path9072"
             inkscape:connector-curvature="0"
             sodipodi:nodetypes="sscccsccss" />
        </g>
      </g>
    </g>
  </g>
</svg>
