<?xml version="1.0" encoding="iso-8859-1"?>
<!-- Generator: Adobe Illustrator 16.0.0, SVG Export Plug-In . SVG Version: 6.00 Build 0)  -->
<!DOCTYPE svg PUBLIC "-//W3C//DTD SVG 1.1//EN" "http://www.w3.org/Graphics/SVG/1.1/DTD/svg11.dtd">
<svg version="1.1" id="Capa_1" xmlns="http://www.w3.org/2000/svg" xmlns:xlink="http://www.w3.org/1999/xlink" x="0px" y="0px"
	 width="560.416px" height="560.416px" viewBox="0 0 560.416 560.416" style="enable-background:new 0 0 560.416 560.416;"
	 xml:space="preserve">
<g>
	<g>
		<path d="M372.561,524.698h-23.018V168.256c0-0.033-0.01-0.064-0.01-0.098c-0.006-0.171-0.023-0.342-0.051-0.511
			c-0.012-0.055-0.02-0.11-0.029-0.166c-0.043-0.196-0.104-0.389-0.178-0.576c-0.02-0.042-0.041-0.081-0.061-0.123
			c-0.068-0.146-0.145-0.287-0.229-0.423c-0.035-0.054-0.072-0.108-0.109-0.161c-0.029-0.042-0.055-0.087-0.086-0.127
			l-29.014-37.059V92.07c0-1.957-1.586-3.544-3.545-3.544h-10.193V58.871c0-1.957-1.586-3.544-3.545-3.544h-5.613V34.83
			c0-1.957-1.586-3.543-3.545-3.543h-9.59V3.544c0-1.958-1.586-3.544-3.543-3.544c-1.957,0-3.543,1.586-3.543,3.544v27.742h-9.568
			c-1.958,0-3.544,1.586-3.544,3.543v20.498h-5.615c-1.957,0-3.543,1.587-3.543,3.544v29.656h-10.194
			c-1.958,0-3.544,1.587-3.544,3.544v36.942l-29.013,37.059c-0.032,0.042-0.058,0.086-0.088,0.129
			c-0.037,0.052-0.074,0.105-0.107,0.16c-0.088,0.138-0.165,0.28-0.231,0.426c-0.019,0.041-0.042,0.078-0.058,0.119
			c-0.078,0.188-0.137,0.382-0.181,0.578c-0.012,0.053-0.019,0.107-0.027,0.162c-0.03,0.171-0.049,0.344-0.053,0.517
			c0,0.032-0.01,0.062-0.01,0.094v356.441h-23.029c-1.956,0-3.544,1.587-3.544,3.544v28.63c0,1.958,1.588,3.544,3.544,3.544h184.706
			c1.959,0,3.545-1.586,3.545-3.544v-28.63C376.105,526.285,374.52,524.698,372.561,524.698z M217.972,171.8h124.481v121.651
			H217.972V171.8z M289.791,38.374v16.954h-19.158V38.374H289.791z M267.089,62.415h26.247h5.613v26.112h-37.475V62.415H267.089z
			 M257.932,95.615h44.562h10.193v31.077h-64.95V95.615H257.932z M245.92,133.779h68.587l24.215,30.933H221.704L245.92,133.779z
			 M217.972,300.539h124.481v224.159H217.972V300.539z M369.018,553.328H191.398v-21.542h23.029h131.57h23.018v21.542H369.018z"/>
		<path d="M280.201,179.818c-27.998,0-50.776,22.778-50.776,50.777c0,28.003,22.778,50.785,50.776,50.785
			c28.006,0,50.792-22.782,50.792-50.785C330.992,202.597,308.207,179.818,280.201,179.818z M280.201,274.293
			c-24.091,0-43.689-19.604-43.689-43.698c0-24.091,19.6-43.688,43.689-43.688c24.098,0,43.704,19.598,43.704,43.688
			C323.904,254.69,304.301,274.293,280.201,274.293z"/>
		<path d="M244.721,323.602c-1.957,0-3.544,1.586-3.544,3.545v180.121c0,1.958,1.587,3.544,3.544,3.544
			c1.958,0,3.544-1.586,3.544-3.544V327.146C248.265,325.188,246.678,323.602,244.721,323.602z"/>
		<path d="M268.226,323.602c-1.958,0-3.544,1.586-3.544,3.545v180.121c0,1.958,1.586,3.544,3.544,3.544
			c1.957,0,3.544-1.586,3.544-3.544V327.146C271.77,325.188,270.183,323.602,268.226,323.602z"/>
		<path d="M291.727,323.602c-1.959,0-3.545,1.586-3.545,3.545v180.121c0,1.958,1.586,3.544,3.545,3.544
			c1.955,0,3.545-1.586,3.545-3.544V327.146C295.27,325.188,293.682,323.602,291.727,323.602z"/>
		<path d="M315.23,323.602c-1.957,0-3.543,1.586-3.543,3.545v180.121c0,1.958,1.586,3.544,3.543,3.544
			c1.959,0,3.545-1.586,3.545-3.544V327.146C318.775,325.188,317.189,323.602,315.23,323.602z"/>
		<path d="M280.202,227.052h-28.317c-1.956,0-3.544,1.586-3.544,3.544s1.588,3.544,3.544,3.544h24.774v26.605
			c0,1.958,1.586,3.544,3.543,3.544c1.958,0,3.544-1.586,3.544-3.544v-30.149C283.746,228.638,282.16,227.052,280.202,227.052z"/>
	</g>
</g>
<g>
</g>
<g>
</g>
<g>
</g>
<g>
</g>
<g>
</g>
<g>
</g>
<g>
</g>
<g>
</g>
<g>
</g>
<g>
</g>
<g>
</g>
<g>
</g>
<g>
</g>
<g>
</g>
<g>
</g>
</svg>
