<?xml version="1.0" encoding="iso-8859-1"?>
<!-- Generator: Adobe Illustrator 18.0.0, SVG Export Plug-In . SVG Version: 6.00 Build 0)  -->
<!DOCTYPE svg PUBLIC "-//W3C//DTD SVG 1.1//EN" "http://www.w3.org/Graphics/SVG/1.1/DTD/svg11.dtd">
<svg version="1.1" id="Capa_1" xmlns="http://www.w3.org/2000/svg" xmlns:xlink="http://www.w3.org/1999/xlink" x="0px" y="0px"
	 viewBox="0 0 489.946 489.946" style="enable-background:new 0 0 489.946 489.946;" xml:space="preserve">
<g>
	<path d="M334.457,380.978c-56.519,26.61-122.448,26.61-178.967,0c-31.454,25.86-51.517,65.07-51.517,108.968h282
		C385.973,446.048,365.911,406.838,334.457,380.978z"/>
	<path d="M244.973,381c105.21,0,190.5-85.289,190.5-190.5c0-105.21-85.29-190.5-190.5-190.5s-190.5,85.29-190.5,190.5
		C54.473,295.711,139.763,381,244.973,381z M74.728,181.21c85.848,16.661,171.467-10.333,231.766-66.733
		c19.949,47.023,57.801,85.53,106.374,105.857C398.758,300.274,328.958,361,244.973,361c-94.164,0-170.5-76.335-170.5-170.5
		C74.473,187.383,74.562,184.287,74.728,181.21z"/>
	<circle cx="167.841" cy="213.466" r="20.132"/>
	<circle cx="322.105" cy="213.466" r="20.132"/>
	<path d="M244.973,327.446c18.023,0,34.246-7.589,41.331-19.335c2.852-4.729,1.33-10.875-3.398-13.728
		c-4.73-2.852-10.876-1.332-13.729,3.398c-2.807,4.655-11.579,9.665-24.204,9.665s-21.397-5.01-24.204-9.665
		c-2.853-4.729-8.997-6.253-13.729-3.398c-4.728,2.853-6.25,8.999-3.398,13.728C210.727,319.857,226.95,327.446,244.973,327.446z"/>
</g>
<g>
</g>
<g>
</g>
<g>
</g>
<g>
</g>
<g>
</g>
<g>
</g>
<g>
</g>
<g>
</g>
<g>
</g>
<g>
</g>
<g>
</g>
<g>
</g>
<g>
</g>
<g>
</g>
<g>
</g>
</svg>
